<?xml version="1.0" standalone="no"?>
<!DOCTYPE svg PUBLIC "-//W3C//DTD SVG 20010904//EN"
 "http://www.w3.org/TR/2001/REC-SVG-20010904/DTD/svg10.dtd">
<svg version="1.0" xmlns="http://www.w3.org/2000/svg"
 width="958.000000pt" height="1280.000000pt" viewBox="0 0 958.000000 1280.000000"
 preserveAspectRatio="xMidYMid meet">
<g transform="translate(0.000000,1280.000000) scale(0.100000,-0.100000)"
fill="#000000" stroke="none">
<path d="M7910 12643 c-157 -74 -348 -163 -425 -197 -320 -145 -1381 -638
-1394 -649 -8 -7 -33 -52 -56 -102 -24 -49 -90 -187 -148 -305 -58 -118 -154
-316 -214 -440 l-110 -225 -426 -284 c-234 -156 -432 -281 -439 -278 -7 2
-119 71 -248 152 -129 81 -322 202 -428 268 l-193 120 -129 256 c-71 141 -189
373 -262 515 l-133 259 -60 24 c-33 14 -89 38 -125 55 -70 33 -556 247 -815
360 -88 38 -208 91 -266 118 -58 27 -168 76 -245 108 -76 33 -240 105 -364
161 -123 55 -226 98 -229 96 -2 -3 6 -55 18 -117 57 -303 121 -648 121 -657 0
-10 254 -225 670 -567 187 -154 199 -162 280 -188 47 -15 146 -47 220 -71 74
-24 209 -67 300 -96 91 -28 170 -56 177 -61 10 -8 130 -205 142 -232 7 -17
410 -717 425 -738 8 -12 68 -45 133 -73 65 -29 318 -141 561 -249 244 -108
450 -196 457 -196 7 0 125 52 261 116 137 64 339 158 449 209 110 51 247 115
305 142 l105 50 190 339 c104 186 232 417 284 512 l96 172 75 29 c41 16 220
77 396 136 l322 108 89 76 c49 42 206 175 348 296 143 121 301 255 352 298 51
43 95 88 98 100 11 47 135 758 135 772 0 8 -3 15 -7 14 -5 0 -136 -61 -293
-136z"/>
<path d="M6110 12442 c-68 -14 -106 -34 -465 -250 -214 -129 -396 -241 -403
-247 -8 -7 -31 -70 -52 -141 -114 -381 -403 -1338 -421 -1391 l-21 -63 -43 0
c-32 0 -45 5 -50 18 -12 32 -456 1386 -480 1466 -13 43 -27 82 -32 86 -4 5
-188 106 -407 225 -395 214 -445 236 -530 235 -27 -1 -22 -6 46 -41 55 -28 79
-46 82 -62 3 -12 17 -128 32 -257 l26 -235 209 -410 c114 -225 232 -454 261
-509 l53 -99 390 -244 c215 -134 397 -242 405 -240 20 5 763 501 776 518 6 8
73 142 149 299 76 157 189 390 251 518 l114 233 20 202 c34 330 23 294 110
345 112 64 109 62 80 61 -14 -1 -59 -8 -100 -17z"/>
<path d="M8039 11526 c-2 -2 -103 -25 -224 -51 -121 -26 -231 -54 -245 -63
-14 -8 -83 -66 -155 -127 -71 -61 -143 -121 -160 -133 -16 -12 -194 -77 -395
-146 -201 -68 -372 -127 -380 -130 -8 -4 -27 -28 -41 -54 -14 -26 -135 -243
-269 -482 -133 -239 -275 -493 -315 -565 -137 -247 -102 -209 -395 -420 l-265
-190 -134 -403 -135 -403 218 -212 c121 -117 222 -213 226 -215 4 -1 74 39
156 90 82 50 228 140 324 200 112 69 185 108 203 108 15 0 179 -14 365 -31
185 -16 346 -28 357 -25 11 3 146 67 299 142 l279 136 -64 62 c-299 287 -384
366 -392 366 -6 0 -49 -33 -96 -73 -47 -40 -207 -175 -354 -300 l-268 -227
-32 16 c-39 20 -48 33 -42 59 10 43 78 327 159 665 47 196 86 365 86 376 0 37
-20 44 -119 44 -53 0 -101 4 -107 8 -14 9 -35 72 -29 83 5 7 552 405 667 484
24 17 137 97 251 179 l208 149 102 131 c56 72 114 147 129 166 89 116 488 628
543 696 36 45 65 84 65 88 0 7 -14 8 -21 2z"/>
<path d="M4838 11390 c-76 -55 -143 -100 -149 -100 -6 0 -72 43 -147 95 -74
52 -137 93 -139 91 -2 -2 25 -93 61 -202 35 -110 101 -314 147 -454 45 -140
86 -259 89 -263 4 -5 17 24 29 65 12 40 35 116 51 168 15 52 67 223 115 380
47 157 88 293 91 303 3 9 2 17 -3 17 -4 0 -70 -45 -145 -100z"/>
<path d="M1351 11412 c2 -6 142 -181 311 -389 168 -208 356 -439 416 -513
l109 -135 304 -210 c167 -115 343 -237 391 -270 408 -281 428 -295 428 -325 0
-15 -8 -37 -17 -49 -16 -18 -30 -21 -122 -23 -84 -2 -106 -6 -114 -19 -8 -13
4 -72 47 -235 31 -121 61 -232 66 -249 5 -16 41 -155 80 -309 l71 -278 -22
-24 c-12 -13 -32 -24 -45 -24 -14 0 -141 99 -360 281 -187 155 -345 284 -352
287 -12 4 -452 -423 -452 -439 0 -3 127 -63 283 -131 l282 -126 80 10 c44 5
211 22 370 38 l290 28 334 -190 333 -191 216 216 215 215 -84 239 c-46 131
-108 310 -139 398 l-56 160 -270 181 -270 182 -61 103 c-33 57 -192 334 -353
614 -161 281 -303 527 -316 547 -23 36 -31 39 -201 93 -616 196 -578 181 -653
243 -38 31 -111 91 -162 133 l-93 76 -220 43 c-121 23 -231 44 -244 47 -15 4
-22 2 -20 -5z"/>
<path d="M7939 11201 c-8 -10 -155 -200 -328 -421 -197 -253 -330 -414 -360
-437 -52 -40 -817 -591 -888 -640 -25 -18 -53 -39 -62 -48 -14 -13 -11 -15 24
-15 35 0 47 -7 105 -64 l65 -64 463 80 463 80 322 -128 322 -127 400 -33 c360
-30 863 -59 871 -51 2 2 -17 50 -42 108 -26 57 -59 133 -74 169 -15 36 -68
157 -118 270 -49 113 -160 365 -245 560 -85 195 -168 382 -183 415 l-29 59
-330 153 c-182 83 -337 152 -346 152 -9 1 -23 -8 -30 -18z"/>
<path d="M1113 10968 l-332 -161 -32 -76 c-17 -42 -66 -161 -109 -266 -42
-104 -175 -428 -294 -719 -119 -291 -215 -530 -214 -532 2 -1 84 6 183 16 99
10 374 35 610 56 l430 37 323 139 c178 76 333 138 345 138 12 0 215 -30 451
-66 l429 -66 66 65 c50 49 75 66 104 71 l38 7 -23 18 c-13 10 -230 161 -483
336 -253 175 -468 325 -479 334 -10 9 -113 133 -229 276 -116 143 -224 276
-241 296 -17 20 -71 86 -120 148 -48 61 -89 111 -90 110 0 0 -150 -72 -333
-161z"/>
<path d="M5524 9676 c-462 -218 -808 -376 -819 -376 -12 0 -181 74 -762 332
-150 67 -276 119 -279 116 -3 -4 14 -41 39 -83 l44 -76 274 -183 274 -183 153
-434 c83 -239 152 -443 152 -452 0 -10 -102 -118 -226 -240 -124 -122 -230
-230 -235 -239 -6 -12 8 -83 51 -246 33 -126 60 -234 60 -241 0 -11 -323 -599
-454 -826 -25 -44 -46 -87 -46 -95 0 -19 130 -452 139 -462 4 -4 126 42 271
103 146 61 331 137 411 170 l147 60 417 -165 c229 -91 422 -166 428 -166 7 0
31 68 56 158 24 86 52 186 62 221 11 35 19 70 19 78 0 8 -117 219 -260 470
-143 250 -260 460 -260 466 0 7 29 113 65 237 l65 225 -245 240 c-135 132
-245 247 -245 255 0 9 65 211 145 450 80 239 145 436 145 437 0 1 122 88 270
194 l271 193 40 74 c23 40 39 75 37 77 -2 3 -94 -38 -204 -89z"/>
<path d="M7350 9559 c-25 -5 -205 -37 -400 -70 -195 -33 -356 -62 -359 -65 -6
-5 -5 -6 254 -249 105 -98 215 -203 247 -233 l56 -54 277 211 c153 116 286
211 296 211 11 0 337 -122 726 -270 388 -149 711 -269 716 -267 5 1 -61 109
-148 239 l-156 236 -52 6 c-29 3 -140 13 -247 22 -107 8 -267 21 -355 28
l-160 13 -215 86 c-118 46 -262 103 -319 126 -57 22 -106 41 -110 40 -3 -1
-26 -5 -51 -10z"/>
<path d="M1695 9360 c-208 -91 -332 -140 -355 -140 -46 0 -702 -59 -715 -64
-6 -2 -38 -48 -71 -102 -200 -325 -236 -385 -231 -390 2 -3 316 126 697 285
380 160 698 291 704 291 7 0 136 -90 285 -200 150 -110 276 -200 281 -200 4 0
124 120 266 267 238 247 255 268 233 274 -13 5 -132 24 -264 44 -132 20 -292
45 -355 56 -63 10 -124 19 -135 18 -11 0 -164 -63 -340 -139z"/>
<path d="M6435 9398 c-3 -7 -39 -155 -80 -328 -42 -173 -85 -355 -96 -403 -12
-48 -19 -90 -16 -93 3 -3 70 50 149 118 80 68 209 177 287 242 78 66 140 122
139 126 -5 10 -366 350 -372 350 -4 0 -9 -6 -11 -12z"/>
<path d="M2778 9195 c-93 -95 -168 -177 -168 -182 0 -5 19 -25 43 -43 48 -38
358 -295 457 -378 35 -30 66 -50 67 -46 2 5 -44 191 -102 412 -58 222 -105
406 -105 408 0 21 -50 -24 -192 -171z"/>
<path d="M7519 9044 c-112 -86 -223 -170 -246 -188 -23 -17 -42 -34 -43 -37 0
-3 55 -59 123 -125 101 -99 170 -153 397 -311 151 -106 345 -241 430 -301
l155 -109 302 -489 c492 -797 761 -1231 850 -1372 36 -57 67 -101 70 -98 3 2
-2 67 -11 143 -9 76 -34 296 -55 488 -22 193 -50 430 -61 528 -11 98 -43 375
-70 615 -27 240 -59 523 -71 627 -12 105 -27 195 -33 202 -6 6 -184 77 -396
158 -212 80 -459 175 -550 210 -399 154 -560 215 -573 215 -8 0 -106 -70 -218
-156z"/>
<path d="M1655 9109 c-22 -10 -114 -50 -205 -88 -91 -37 -277 -116 -415 -174
-137 -58 -371 -156 -520 -218 -148 -62 -274 -115 -278 -119 -7 -6 -33 -285
-77 -840 -11 -135 -26 -321 -35 -415 -8 -93 -19 -228 -25 -299 -5 -71 -26
-318 -46 -549 -19 -230 -34 -432 -32 -449 3 -27 8 -21 57 64 30 51 71 122 92
158 20 36 48 83 61 106 13 22 154 270 314 550 160 280 362 634 448 787 l158
277 401 301 c327 245 426 325 530 428 70 69 127 129 127 133 0 3 -39 35 -87
71 -49 35 -159 116 -246 180 -87 65 -164 117 -170 116 -7 0 -30 -9 -52 -20z"/>
<path d="M7090 8313 l-275 -134 -150 -148 c-144 -144 -161 -156 -439 -341
l-288 -192 61 -62 c34 -34 61 -67 61 -74 0 -6 -20 -57 -45 -113 -25 -56 -45
-106 -45 -112 0 -5 15 -26 33 -47 17 -20 149 -177 291 -349 143 -171 265 -310
270 -308 6 2 90 138 187 303 97 164 249 423 339 574 l162 275 60 405 c32 223
57 417 56 431 -3 25 -6 24 -278 -108z"/>
<path d="M7477 8426 c-3 -8 -12 -62 -18 -118 l-12 -103 208 -410 c115 -226
255 -499 311 -609 l102 -199 128 -94 c122 -89 213 -157 569 -421 82 -61 153
-108 157 -104 4 4 8 106 9 227 l2 220 -90 145 c-49 80 -154 250 -234 379 -342
555 -340 553 -399 597 -30 23 -103 74 -161 115 -59 41 -205 143 -324 227 -120
85 -223 156 -230 158 -7 3 -15 -2 -18 -10z"/>
<path d="M2063 8358 c3 -13 26 -142 52 -288 26 -146 57 -327 71 -402 l24 -137
192 -323 c105 -178 256 -432 335 -565 79 -134 147 -243 151 -243 4 0 138 163
297 362 l289 362 -52 98 c-29 53 -52 103 -52 110 0 7 30 42 66 79 l66 66 -301
194 c-288 185 -308 199 -446 332 l-144 138 -268 120 c-147 65 -271 119 -276
119 -5 0 -7 -10 -4 -22z"/>
<path d="M1586 8101 l-358 -268 -175 -309 c-96 -170 -240 -423 -319 -561
l-144 -253 10 -182 c11 -190 15 -228 28 -228 4 0 115 86 247 191 132 105 294
232 360 284 200 156 178 125 333 460 77 165 204 437 282 605 l143 305 -12 90
c-15 109 -21 135 -30 135 -4 0 -169 -121 -365 -269z"/>
<path d="M5995 8194 c-33 -20 -123 -76 -200 -124 -77 -48 -192 -119 -256 -158
-64 -40 -121 -77 -126 -84 -12 -16 -123 -409 -122 -435 0 -14 135 -255 208
-372 10 -17 52 -1 258 95 l112 52 35 77 c20 43 36 85 36 94 0 9 -24 40 -53 69
l-52 51 -160 26 c-88 13 -164 25 -169 25 -19 0 4 55 85 200 50 91 92 156 104
161 11 4 191 31 400 59 l380 51 95 94 c52 52 92 96 90 98 -3 3 -113 14 -245
26 -132 12 -267 24 -300 27 -56 5 -64 3 -120 -32z"/>
<path d="M3210 8190 c-36 -5 -146 -16 -245 -25 -99 -10 -183 -21 -188 -24 -4
-4 37 -50 90 -102 l98 -95 385 -43 c212 -23 392 -45 402 -47 20 -6 201 -330
195 -348 -6 -15 -23 -19 -201 -47 -70 -11 -136 -24 -145 -29 -9 -4 -38 -31
-66 -59 l-49 -51 41 -83 41 -83 171 -77 c94 -42 177 -77 184 -77 7 0 59 83
116 186 93 166 103 189 98 222 -9 58 -105 414 -114 423 -9 9 -480 281 -581
335 -67 37 -98 40 -232 24z"/>
<path d="M7415 7999 c-3 -13 -18 -113 -34 -222 l-28 -198 58 -252 c31 -139 74
-326 95 -416 l39 -164 234 -251 c768 -822 942 -1004 1148 -1204 l228 -220 3
38 c2 21 -9 207 -23 412 -14 205 -29 420 -32 477 l-6 104 -161 118 c-89 65
-242 179 -341 253 -99 73 -277 205 -395 293 l-215 160 -170 333 c-93 183 -217
427 -275 541 -58 114 -108 211 -112 214 -4 4 -10 -3 -13 -16z"/>
<path d="M1810 7519 c-113 -242 -230 -491 -260 -552 l-55 -112 -106 -85 c-59
-47 -198 -157 -309 -245 -112 -88 -303 -239 -425 -336 l-222 -176 -6 -229
c-19 -679 -20 -790 -5 -774 35 35 431 474 627 695 117 132 246 276 285 320 40
44 192 216 339 382 l267 301 50 239 c28 131 67 313 86 405 l35 166 -25 134
c-13 73 -27 151 -31 173 -13 79 -27 135 -33 135 -4 0 -99 -199 -212 -441z"/>
<path d="M5991 7814 c-179 -25 -247 -38 -255 -49 -25 -35 -89 -165 -84 -170 3
-4 48 -13 100 -22 l95 -16 211 142 c117 78 212 143 212 146 0 7 -15 6 -279
-31z"/>
<path d="M3173 7813 c4 -6 99 -70 212 -143 l206 -133 77 12 c114 17 132 22
132 31 0 13 -90 169 -101 176 -6 3 -104 17 -217 29 -114 13 -231 27 -261 31
-36 5 -52 4 -48 -3z"/>
<path d="M7153 7222 c-67 -114 -214 -364 -327 -556 l-206 -349 -30 -246 c-16
-135 -34 -279 -40 -320 -6 -41 -13 -122 -17 -180 l-6 -106 20 25 c11 14 112
153 225 310 112 157 309 430 436 608 128 177 232 328 232 334 0 22 -152 673
-158 680 -4 4 -62 -86 -129 -200z"/>
<path d="M2177 7343 c-3 -16 -20 -93 -37 -173 -90 -422 -99 -472 -88 -494 28
-54 190 -280 563 -786 67 -91 157 -217 200 -280 124 -183 118 -183 111 -5 -10
232 -15 274 -56 486 l-38 197 -178 299 c-181 304 -328 553 -416 701 -27 45
-50 82 -52 82 -2 0 -6 -12 -9 -27z"/>
<path d="M5720 6988 c-85 -38 -157 -72 -159 -73 -4 -5 228 -410 316 -553 42
-69 148 -202 311 -394 l247 -291 7 34 c4 19 23 162 42 319 28 231 32 288 22
300 -7 8 -82 98 -167 199 -85 101 -165 198 -179 216 -94 120 -264 315 -273
315 -7 -1 -82 -33 -167 -72z"/>
<path d="M3245 6678 c-164 -205 -300 -382 -303 -393 -2 -11 13 -106 33 -210
20 -105 39 -234 42 -287 3 -54 10 -95 14 -92 8 4 75 82 370 424 64 74 127 155
141 180 14 25 94 166 177 315 84 148 153 274 154 279 2 8 -305 155 -323 156
-3 0 -140 -168 -305 -372z"/>
<path d="M7454 6578 c-26 -35 -48 -68 -51 -74 -2 -7 9 -40 25 -75 32 -69 96
-205 332 -709 84 -179 196 -419 250 -535 54 -115 118 -253 143 -305 24 -52 92
-196 150 -320 58 -124 122 -261 142 -305 21 -44 93 -198 161 -342 77 -167 143
-292 179 -343 65 -92 80 -105 71 -64 -5 25 -161 1107 -257 1784 l-30 215 -43
45 c-58 61 -296 316 -689 738 -181 194 -330 352 -333 352 -2 0 -25 -28 -50
-62z"/>
<path d="M1933 6548 c-22 -24 -116 -128 -208 -233 -92 -104 -182 -206 -199
-225 -52 -58 -266 -298 -346 -388 -41 -47 -109 -124 -151 -172 l-75 -87 -13
-104 c-15 -133 -129 -1056 -181 -1470 -22 -174 -40 -332 -40 -350 0 -34 1 -33
42 31 39 60 104 202 335 730 169 384 273 622 463 1050 295 668 482 1092 493
1120 8 22 4 34 -28 83 -21 31 -41 57 -44 57 -4 0 -25 -19 -48 -42z"/>
<path d="M7287 6348 c-19 -29 -129 -183 -245 -343 -115 -159 -207 -294 -205
-300 2 -5 84 -73 181 -151 97 -77 337 -270 532 -427 l356 -286 93 -428 c94
-437 172 -791 241 -1105 22 -97 56 -232 76 -300 20 -67 39 -133 42 -145 8 -41
20 -24 52 75 17 53 74 229 127 391 l95 294 -55 116 c-31 64 -106 224 -168 356
-61 132 -162 348 -224 480 -62 132 -175 375 -253 540 -77 165 -193 413 -257
550 -64 138 -145 311 -180 385 -113 243 -164 350 -168 350 -2 0 -20 -24 -40
-52z"/>
<path d="M2117 6343 c-8 -15 -63 -138 -122 -273 -107 -245 -162 -370 -195
-445 -10 -22 -138 -312 -285 -645 -146 -333 -306 -695 -355 -805 -204 -463
-243 -551 -247 -562 -3 -6 53 -188 123 -403 88 -267 131 -386 136 -373 9 24
59 255 173 813 235 1145 244 1182 262 1195 10 7 142 116 294 241 151 126 378
314 502 417 190 156 226 190 218 205 -5 9 -46 67 -90 127 -45 61 -149 203
-231 317 -83 114 -155 210 -160 213 -5 3 -16 -7 -23 -22z"/>
<path d="M3658 6299 c-9 -13 -27 -44 -41 -68 -14 -25 -86 -115 -160 -200 -74
-86 -201 -232 -282 -326 l-147 -170 6 -120 c4 -66 9 -146 12 -177 l6 -57 161
-148 c89 -81 169 -153 178 -160 9 -8 161 -26 385 -48 203 -19 382 -37 397 -40
22 -4 482 108 495 120 2 2 -7 50 -21 107 -14 57 -33 135 -42 174 -9 39 -20 76
-24 82 -4 6 -87 39 -186 72 -99 34 -206 71 -239 82 -58 20 -58 21 -135 140
-42 65 -106 165 -142 221 -62 95 -71 116 -129 307 -34 113 -65 211 -70 219 -6
11 -11 9 -22 -10z"/>
<path d="M5756 6268 c-8 -29 -36 -129 -62 -223 -26 -93 -55 -179 -64 -190 -10
-11 -59 -85 -110 -165 -159 -248 -159 -248 -204 -265 -23 -8 -131 -46 -240
-83 l-200 -67 -38 -165 c-34 -151 -44 -210 -35 -210 2 0 105 -26 228 -59 l224
-58 411 31 411 32 164 149 c90 82 168 152 173 156 10 9 17 325 7 368 -3 17
-82 118 -192 247 -103 121 -229 269 -281 330 -52 61 -109 137 -127 168 -18 31
-36 56 -41 56 -5 0 -15 -24 -24 -52z"/>
<path d="M4525 6134 c-286 -120 -418 -175 -447 -186 -25 -9 -39 -28 -20 -28 7
0 525 -105 569 -115 12 -3 39 -30 60 -60 21 -30 41 -55 44 -55 3 0 23 24 43
54 33 48 43 56 84 65 26 5 161 33 300 62 138 29 252 56 252 60 0 8 -676 279
-693 278 -7 0 -93 -34 -192 -75z"/>
<path d="M5185 5776 c-159 -35 -296 -65 -304 -67 -8 -3 -41 -45 -75 -94 -34
-50 -65 -90 -71 -90 -5 0 -40 41 -76 90 -61 82 -72 91 -114 102 -102 26 -546
114 -560 111 -11 -2 5 -33 56 -113 137 -213 90 -178 374 -275 l250 -86 30
-116 c17 -64 33 -119 36 -122 3 -4 16 42 29 101 13 60 26 114 30 122 7 13 128
58 393 147 l108 36 96 146 c99 152 111 173 97 171 -5 -1 -139 -29 -299 -63z"/>
<path d="M6706 5536 c-38 -55 -55 -89 -50 -98 4 -7 67 -85 138 -172 72 -87
156 -189 186 -227 30 -37 89 -109 132 -161 l76 -93 6 -495 c3 -272 8 -799 11
-1170 7 -943 16 -1510 25 -1510 4 0 97 145 206 323 108 177 311 507 449 732
138 226 260 424 270 442 19 32 19 34 -8 155 -64 293 -202 927 -263 1208 -36
168 -70 310 -75 317 -6 6 -110 92 -232 190 -122 98 -351 283 -510 411 -158
127 -291 232 -295 232 -5 0 -34 -38 -66 -84z"/>
<path d="M2649 5577 c-14 -12 -164 -137 -334 -277 -169 -140 -368 -304 -440
-365 -72 -60 -146 -121 -164 -135 -30 -24 -33 -33 -72 -220 -76 -368 -98 -475
-143 -695 -25 -121 -68 -330 -96 -464 -27 -133 -50 -252 -50 -264 0 -17 202
-354 345 -577 23 -36 127 -202 231 -368 104 -167 222 -356 262 -420 40 -65 78
-127 84 -140 6 -12 16 -22 21 -22 6 0 7 544 3 1573 l-8 1573 74 95 c41 52 143
182 229 289 85 107 169 214 187 237 l33 43 -53 77 c-29 43 -60 79 -68 80 -8 2
-27 -7 -41 -20z"/>
<path d="M6556 5327 c-23 -30 -26 -43 -26 -117 l0 -83 -47 -46 c-41 -39 -352
-321 -361 -327 -3 -2 107 -286 261 -679 95 -240 576 -1471 649 -1660 38 -99
72 -182 75 -185 4 -5 -5 1542 -12 1925 -2 94 -3 265 -4 381 l-1 212 -192 233
c-105 129 -219 267 -251 307 -33 39 -61 72 -63 72 -2 0 -14 -15 -28 -33z"/>
<path d="M2826 5294 c-25 -32 -67 -84 -91 -114 -24 -30 -112 -140 -195 -245
l-152 -190 6 -940 c3 -517 6 -1068 6 -1225 0 -175 4 -279 10 -270 5 9 56 139
113 290 243 637 289 758 312 815 13 33 46 119 73 190 118 310 228 600 332 869
61 158 110 292 108 296 -2 4 -64 62 -138 130 -242 220 -260 239 -260 274 0 63
-13 103 -44 141 l-32 38 -48 -59z"/>
<path d="M4596 4781 c-55 -15 -101 -31 -103 -37 -2 -5 10 -31 27 -57 l30 -47
184 0 184 0 32 50 c18 28 30 53 27 57 -12 12 -213 62 -247 62 -19 -1 -80 -13
-134 -28z"/>
<path d="M3484 4733 c3 -10 15 -71 27 -136 l22 -118 161 -111 c182 -126 193
-134 406 -284 l155 -109 478 -3 478 -3 92 64 c51 35 205 142 342 237 138 95
260 181 271 192 16 14 27 48 43 126 30 154 30 154 -21 148 -24 -3 -110 -10
-193 -16 -82 -6 -228 -18 -324 -26 -168 -14 -176 -14 -248 6 -40 11 -75 20
-78 20 -2 0 -32 -41 -66 -90 l-61 -90 -237 2 -236 3 -51 78 c-29 43 -56 83
-61 88 -7 7 -38 3 -88 -10 l-79 -20 -255 25 c-141 13 -297 28 -348 34 -127 14
-135 13 -129 -7z"/>
<path d="M3383 4568 c-6 -18 -60 -161 -121 -318 -60 -157 -146 -382 -191 -500
-45 -118 -93 -242 -106 -275 -13 -33 -94 -244 -180 -470 -86 -225 -197 -514
-246 -642 -49 -127 -89 -236 -89 -241 0 -5 19 -35 42 -68 35 -51 448 -664 660
-981 37 -57 70 -103 73 -103 2 0 41 114 86 253 74 229 88 287 156 632 171 879
314 1602 323 1635 8 29 30 49 127 120 391 280 358 253 325 265 -16 5 -202 131
-414 278 l-386 269 -17 89 c-10 49 -21 89 -25 89 -3 0 -11 -15 -17 -32z"/>
<path d="M6046 4513 c-10 -52 -23 -94 -34 -105 -15 -14 -224 -161 -662 -465
-69 -48 -115 -73 -133 -73 -16 0 -27 -4 -25 -9 2 -5 98 -79 213 -166 116 -87
220 -167 232 -179 17 -16 31 -63 63 -216 23 -107 81 -379 130 -605 49 -225
116 -538 150 -695 34 -157 75 -346 91 -420 25 -116 179 -601 199 -623 3 -4 91
118 194 270 103 153 226 334 273 403 47 69 137 201 200 293 l115 168 -68 172
c-37 95 -95 244 -130 332 -134 341 -449 1147 -504 1290 -32 83 -97 249 -145
370 -48 121 -96 245 -107 275 -11 30 -24 59 -28 63 -4 5 -15 -31 -24 -80z"/>
<path d="M4510 3840 c0 -6 16 -57 36 -113 20 -56 47 -131 59 -167 119 -335
120 -339 129 -329 7 8 196 588 196 603 0 14 -25 16 -210 16 -139 0 -210 -4
-210 -10z"/>
<path d="M4334 3786 c-32 -23 -147 -106 -254 -183 l-195 -141 -63 -318 c-73
-371 -142 -724 -242 -1234 -39 -201 -75 -385 -79 -409 -10 -50 -19 -12 113
-498 80 -294 99 -378 121 -538 43 -316 55 -399 60 -403 2 -3 8 6 13 19 5 13
28 74 50 134 23 61 64 173 93 250 34 92 54 161 56 200 3 33 -7 231 -21 441
-14 210 -26 408 -26 441 l0 59 128 166 c70 91 168 219 217 284 347 456 417
544 430 544 7 0 41 -37 76 -82 35 -46 176 -227 314 -403 138 -176 286 -365
329 -420 l78 -100 -6 -180 c-4 -99 -13 -326 -22 -505 l-15 -325 101 -250 c56
-137 106 -254 110 -259 12 -12 16 11 40 199 45 356 52 394 155 781 l103 391
-22 99 c-29 124 -41 181 -116 534 -52 242 -113 525 -245 1135 -13 61 -29 136
-36 167 -6 31 -15 60 -18 65 -6 9 -471 360 -500 377 -8 5 -17 3 -22 -5 -5 -8
-65 -186 -134 -395 l-125 -382 -31 -6 c-35 -7 -63 5 -74 31 -8 21 -176 491
-230 646 -21 59 -41 110 -45 112 -4 2 -34 -15 -66 -39z"/>
<path d="M4525 2179 c-110 -144 -206 -272 -214 -284 -13 -21 -3 -36 208 -294
122 -149 224 -271 226 -271 2 0 26 28 53 63 27 34 125 154 216 266 91 112 166
207 166 212 0 5 -46 69 -103 142 -57 72 -154 197 -217 277 -62 80 -118 146
-124 148 -6 1 -101 -115 -211 -259z"/>
</g>
</svg>
